<?xml version="1.0" encoding="UTF-8"?>
<svg id="VISAGE4-ROUSSE" xmlns="http://www.w3.org/2000/svg" viewBox="0 0 60 60">
  <defs>
    <style>
      .cls-1 {
        fill: #010658;
      }

      .cls-2 {
        fill: #f2295e;
      }

      .cls-3 {
        fill: #fff;
      }

      .cls-4 {
        fill: #021059;
      }

      .cls-5 {
        fill: #535af1;
      }

      .cls-6 {
        fill: #f2efea;
      }
    </style>
  </defs>
  <g id="ECRAN">
    <path id="INT" class="cls-6" d="M13,51.02l-.12-.03c-.33-.09-1.95-.74-1.95-4.66v-21.71c0-6.19,3.54-11.83,9.02-14.35,2.22-1.02,4.57-1.73,7-2.1,1.14-.18,2.3-.27,3.46-.27,3.78,0,7.55.94,11.2,2.79,5.15,2.61,8.48,8.14,8.48,14.08v21.56c0,3.94-1.69,4.58-2.02,4.67l-.11.03H13Z"/>
    <path id="EXT" class="cls-5" d="M30.4,8.83c3.63,0,7.26.91,10.79,2.69,4.84,2.46,7.97,7.65,7.97,13.24v21.56c0,3.41-1.33,3.76-1.33,3.76H13.12s-1.27-.35-1.27-3.76v-21.71c0-5.83,3.33-11.12,8.48-13.49,2.14-.98,4.41-1.67,6.75-2.03,1.09-.17,2.21-.25,3.32-.25M30.4,6.95c-1.21,0-2.42.09-3.6.28-2.51.38-4.94,1.12-7.24,2.17-5.81,2.67-9.56,8.64-9.56,15.2v21.71c0,4.49,2.02,5.4,2.63,5.57l.24.07h35.19l.23-.06c.64-.17,2.71-1.06,2.71-5.58v-21.56c0-6.29-3.53-12.15-8.99-14.92-3.78-1.92-7.69-2.89-11.61-2.89h0Z"/>
  </g>
  <g id="VISAGE">
    <g id="CHEVEUX">
      <path id="INT-2" data-name="INT" class="cls-2" d="M36.27,46.55c3.43-2.19,6.16-6.27,7.31-11.37.12-.54.02-1.12-.28-1.58-.3-.45-.75-.75-1.27-.85-1.98-.35-4.8-1.32-6.96-3.95-2.25-2.74-2.66-5.84-2.61-7.96.01-.55-.19-1.06-.56-1.45-.37-.39-.87-.6-1.4-.6s-1.03.21-1.4.6c-.37.39-.57.9-.56,1.45.05,2.12-.36,5.22-2.61,7.96-2.16,2.63-4.98,3.6-6.96,3.95-.52.09-.98.39-1.27.85-.3.46-.41,1.04-.28,1.58,1.15,5.1,3.88,9.18,7.31,11.37h-9.18c-.13,0-.23-.11-.23-.23v-21.72c0-4.44,2.53-8.48,6.44-10.28,1.84-.85,3.81-1.44,5.84-1.75.93-.14,1.87-.22,2.8-.22,3.09,0,6.2.78,9.24,2.32,3.67,1.86,6.05,5.82,6.05,10.09v21.56c0,.13-.1.23-.23.23h-9.18Z"/>
      <path id="EXT-2" data-name="EXT" class="cls-4" d="M40.02,13.89c-2.61-1.33-5.89-2.42-9.62-2.42-.95,0-1.93.07-2.94.23-2.32.36-4.34,1.03-6.06,1.82-4.27,1.96-6.95,6.33-6.95,11.08v21.72c0,.62.49,1.12,1.1,1.12h.17s0,0,0,0h29.5v-.02l.23.02c.61,0,1.1-.5,1.1-1.12v-21.56c0-4.58-2.49-8.83-6.53-10.87ZM44.82,45.67h-5.93c2.45-2.26,4.5-5.65,5.54-10.29.05-.22.07-.44.07-.66,0-.57-.16-1.13-.47-1.61-.43-.66-1.09-1.09-1.85-1.23-2.68-.47-4.84-1.7-6.44-3.64-2.08-2.54-2.46-5.41-2.41-7.38.02-.79-.27-1.53-.8-2.09-.54-.56-1.26-.87-2.03-.87s-1.49.31-2.03.87c-.53.56-.82,1.3-.8,2.09.05,1.97-.33,4.84-2.41,7.38-1.6,1.94-3.76,3.17-6.44,3.64-.76.14-1.42.57-1.85,1.23-.31.48-.47,1.04-.47,1.61,0,.22.02.44.07.66,1.04,4.64,3.09,8.03,5.54,10.29h-5.93v-21.07c0-4.1,2.33-7.82,5.93-9.48,1.77-.81,3.66-1.38,5.61-1.68.89-.13,1.79-.2,2.68-.2,2.95,0,5.93.75,8.85,2.23,3.38,1.71,5.57,5.36,5.57,9.29v20.91ZM18.26,34.99c-.14-.63.24-1.26.86-1.37,2.3-.4,5.21-1.49,7.48-4.26,2.47-3.01,2.86-6.41,2.8-8.54-.01-.63.48-1.15,1.1-1.15s1.11.52,1.1,1.15c-.06,2.13.33,5.53,2.8,8.54,2.27,2.77,5.18,3.86,7.48,4.26.62.11,1,.74.86,1.37-1.82,8.05-7.22,11.56-12.27,11.56s-10.39-3.51-12.21-11.56Z"/>
    </g>
    <path id="TETE" class="cls-3" d="M42.74,34.99c-1.82,8.05-7.22,11.56-12.27,11.56s-10.39-3.51-12.21-11.56c-.14-.63.24-1.26.86-1.37,2.3-.4,5.21-1.49,7.48-4.26,2.47-3.01,2.86-6.41,2.8-8.54-.01-.63.48-1.15,1.1-1.15s1.11.52,1.1,1.15c-.06,2.13.33,5.53,2.8,8.54,2.27,2.77,5.18,3.86,7.48,4.26.62.11,1,.74.86,1.37Z"/>
    <path id="BOUCHE" class="cls-1" d="M30.5,44.16c-1.32,0-2.39-1.09-2.39-2.43,0-.49.39-.88.87-.88s.87.39.87.88c0,.37.29.66.65.66s.65-.3.65-.66c0-.49.39-.88.87-.88s.87.39.87.88c0,1.34-1.07,2.43-2.39,2.43Z"/>
    <path id="NEZ" class="cls-1" d="M30.06,37.32s-.05,0-.07,0c-.24-.01-.42-.22-.41-.46.01-.24.22-.44.45-.42.24,0,.37-.09.43-.15.07-.07.11-.17.1-.25-.02-.18-.17-.39-.37-.44-.23-.05-.38-.29-.33-.53.05-.24.28-.39.52-.34.63.14,1,.72,1.04,1.22.03.34-.09.68-.34.94-.26.27-.63.42-1.02.42Z"/>
    <g id="YEUX">
      <g id="L">
        <path class="cls-1" d="M24.86,33.63s-.06,0-.09,0c-.42.05-.71.44-.66.86.05.39.37.68.75.68.03,0,.06,0,.09,0,.42-.05.71-.44.66-.86-.05-.39-.37-.68-.75-.68h0Z"/>
      </g>
      <g id="R">
        <path class="cls-1" d="M36.14,33.63c-.38,0-.71.29-.75.68-.05.42.25.81.66.86.03,0,.06,0,.09,0,.38,0,.71-.29.75-.68.05-.42-.25-.81-.66-.86-.03,0-.06,0-.09,0h0Z"/>
      </g>
    </g>
  </g>
  <path id="BOUCHE-2" data-name="BOUCHE" class="cls-1" d="M30.5,44.16c-1.32,0-2.39-1.09-2.39-2.43,0-.49.39-.88.87-.88s.87.39.87.88c0,.37.29.66.65.66s.65-.3.65-.66c0-.49.39-.88.87-.88s.87.39.87.88c0,1.34-1.07,2.43-2.39,2.43Z"/>
  <g id="YEUX-2" data-name="YEUX">
    <g id="L-2" data-name="L">
      <path class="cls-1" d="M24.86,33.63s-.06,0-.09,0c-.42.05-.71.44-.66.86.05.39.37.68.75.68.03,0,.06,0,.09,0,.42-.05.71-.44.66-.86-.05-.39-.37-.68-.75-.68h0Z"/>
    </g>
    <g id="R-2" data-name="R">
      <path class="cls-1" d="M36.14,33.63c-.38,0-.71.29-.75.68-.05.42.25.81.66.86.03,0,.06,0,.09,0,.38,0,.71-.29.75-.68.05-.42-.25-.81-.66-.86-.03,0-.06,0-.09,0h0Z"/>
    </g>
  </g>
</svg>