<?xml version="1.0" encoding="UTF-8"?>
<svg id="Calque_2" data-name="Calque 2" xmlns="http://www.w3.org/2000/svg" viewBox="0 0 40 45">
  <defs>
    <style>
      .cls-1 {
        fill: #010658;
      }

      .cls-2 {
        fill: #fff;
      }

      .cls-3 {
        fill: #021059;
      }

      .cls-4 {
        fill: #535af1;
      }

      .cls-5 {
        fill: #2e38f2;
      }

      .cls-6 {
        fill: #f2efea;
      }
    </style>
  </defs>
  <g id="VISAGE3-BOUCLE">
    <g id="ECRAN">
      <path id="INT" class="cls-6" d="M38.35,9.62c-.12-.19-.24-.38-.38-.55,0-.22-.03-.44-.08-.65-.48-2.29-2.82-3.6-4.91-3.88-.2-.03-.4-.05-.59-.06-.31-.37-.67-.71-1.08-1-.83-.6-1.77-.97-2.75-1.08-.28-.29-.61-.55-.97-.77-.82-.5-1.79-.76-2.81-.76-.79,0-1.55.16-2.24.47h-.01c-.19-.07-.7-.25-2.05-.25s-1.87.18-2.05.25c0,0-.01,0-.02,0-.69-.31-1.45-.47-2.24-.47-1.01,0-1.98.26-2.81.77-.36.22-.69.48-.97.77-.98.11-1.93.48-2.76,1.08-.41.29-.77.63-1.07,1-.19,0-.39.03-.58.05-2.1.28-4.44,1.59-4.92,3.88-.04.22-.07.43-.08.65-.14.17-.26.36-.38.55-.54.91-.76,1.94-.77,2.95-.99,1.33-1.26,3.09-.54,4.6.2.42.47.81.79,1.15-.01.23,0,.46.02.68.16,1.34.98,2.49,2.17,3.24v14.29c0,4.2,3.54,7.61,7.89,7.61h16.42c4.35,0,7.89-3.42,7.89-7.61v-18.8c.68-.37,1.27-.93,1.73-1.66,1.02-1.62,1.4-4.35.15-6.45Z"/>
      <path id="EXT" class="cls-4" d="M28.57,45H12.15c-4.84,0-8.77-3.8-8.77-8.48v-13.83c-1.21-.9-1.99-2.19-2.16-3.59-.02-.15-.03-.31-.03-.47-.28-.34-.52-.71-.7-1.1-.79-1.67-.61-3.65.46-5.25.05-1.16.34-2.2.88-3.1.09-.15.18-.29.28-.43.02-.17.04-.34.08-.51.57-2.71,3.25-4.24,5.66-4.57.09-.01.18-.02.28-.03.29-.31.62-.6.98-.86.86-.62,1.84-1.03,2.87-1.2.28-.26.59-.49.92-.69,1.62-.98,3.77-1.16,5.54-.48.33-.09.94-.2,2.03-.2s1.67.11,2.02.2c1.78-.68,3.93-.5,5.55.48.33.2.64.43.92.69,1.02.17,2,.58,2.86,1.2.36.26.69.55.98.86.1.01.19.02.29.03,2.4.32,5.08,1.86,5.65,4.56.04.17.06.34.08.52.1.14.19.28.28.43,1.42,2.39.99,5.5-.16,7.34-.42.67-.97,1.25-1.6,1.68v18.32c0,4.67-3.93,8.48-8.77,8.48ZM16.16,1.72c-.85,0-1.66.22-2.35.64-.3.18-.56.39-.8.63l-.22.22-.31.04c-.83.1-1.64.42-2.34.92-.35.25-.65.54-.91.85l-.24.29-.39.02c-.17,0-.34.02-.51.05-1.8.24-3.79,1.32-4.18,3.2-.03.17-.06.34-.06.51v.28s-.18.22-.18.22c-.11.14-.22.3-.32.46-.42.71-.64,1.56-.65,2.52v.28s-.17.23-.17.23c-.84,1.12-1.01,2.55-.45,3.72.16.34.37.64.64.92l.26.27-.02.37c0,.18,0,.36.02.54.12,1.03.77,1.98,1.77,2.61l.41.26v14.76c0,3.72,3.15,6.75,7.02,6.75h16.42c3.87,0,7.02-3.03,7.02-6.75v-19.31l.45-.25c.57-.31,1.04-.77,1.41-1.36.86-1.36,1.2-3.77.14-5.55h0c-.1-.16-.2-.32-.31-.46l-.18-.22v-.28c-.02-.17-.04-.34-.07-.51-.39-1.88-2.38-2.96-4.17-3.2-.18-.02-.35-.04-.52-.05l-.39-.02-.25-.29c-.26-.32-.57-.6-.92-.85-.7-.51-1.51-.82-2.34-.92l-.31-.04-.22-.22c-.24-.24-.51-.46-.8-.63-1.23-.74-2.9-.84-4.23-.25l-.34.15-.36-.14c-.11-.04-.52-.19-1.73-.19-.8,0-1.39.07-1.75.2l-.34.12-.34-.14c-.58-.26-1.21-.39-1.88-.39Z"/>
    </g>
    <g id="VISAGE">
      <path id="CHEVEUX_DERRIERE" class="cls-3" d="M6,13.75l-.1.06c-1.02.58-1.46,1.8-1.01,2.78.24.52.72.91,1.29,1.09-.22.33-.42.77-.36,1.28.12.98,1.2,1.92,2.68,1.92.13,0,.26,0,.4-.02l.32-.04.17-6.86-3.4-.21Z"/>
      <g id="FORME_TETE" data-name="FORME TETE">
        <path id="INT-2" data-name="INT" class="cls-2" d="M12.82,39.83c-2.34,0-4.24-1.88-4.24-4.19v-19.35c0-2.31,1.9-4.19,4.24-4.19h15.03c2.34,0,4.24,1.88,4.24,4.19v19.35c0,2.31-1.9,4.19-4.24,4.19h-15.03Z"/>
        <path id="EXT-2" data-name="EXT" class="cls-3" d="M27.85,12.84c1.92,0,3.5,1.55,3.5,3.45v19.35c0,1.9-1.57,3.45-3.5,3.45h-15.03c-1.92,0-3.5-1.55-3.5-3.45v-19.35c0-1.9,1.57-3.45,3.5-3.45h15.03M27.85,11.37h-15.03c-2.75,0-4.99,2.21-4.99,4.92v19.35c0,2.72,2.24,4.92,4.99,4.92h15.03c2.75,0,4.99-2.21,4.99-4.92v-19.35c0-2.72-2.24-4.92-4.99-4.92h0Z"/>
      </g>
      <path id="NEZ" class="cls-1" d="M23.53,31.87c.14.28-.06.61-.38.61h-1.91c-.21,0-.37-.16-.37-.37s.17-.37.37-.37h1.4l-1.73-3.42c-.09-.18-.02-.4.17-.49.19-.09.41-.02.5.16l1.96,3.88Z"/>
      <path id="BOUCHE" class="cls-1" d="M21.68,36.34c-.83,0-1.78-.15-2.75-.58-1.99-.89-2.97-2.47-3.37-3.33-.17-.37-.01-.81.36-.98.38-.17.82-.01.99.36.25.54,1.02,1.88,2.63,2.6,2.01.9,3.87.22,4.4,0,.38-.16.82,0,.98.38.17.37,0,.81-.38.97-.41.18-1.49.58-2.86.58Z"/>
      <g id="YEUX">
        <path id="PUPIL" class="cls-1" d="M24.8,24.08c-.48,0-.88.39-.88.87s.39.87.88.87.88-.39.88-.87-.39-.87-.88-.87h0Z"/>
        <path id="PUPIL-2" data-name="PUPIL" class="cls-1" d="M16.29,24.08c-.48,0-.88.39-.88.87s.39.87.88.87.88-.39.88-.87-.39-.87-.88-.87h0Z"/>
      </g>
      <g id="LUNETTES">
        <path id="LENTILLE_L" class="cls-1" d="M16.29,21.85c1.73,0,3.14,1.39,3.14,3.1s-1.41,3.09-3.14,3.09-3.13-1.39-3.13-3.09,1.41-3.1,3.13-3.1M16.29,21.11c-2.14,0-3.88,1.72-3.88,3.83s1.74,3.83,3.88,3.83,3.88-1.72,3.88-3.83-1.74-3.83-3.88-3.83h0Z"/>
        <path id="LENTILLE_R" class="cls-1" d="M24.8,21.85c1.73,0,3.14,1.39,3.14,3.1s-1.41,3.09-3.14,3.09-3.13-1.39-3.13-3.09,1.41-3.1,3.13-3.1M24.8,21.11c-2.14,0-3.88,1.72-3.88,3.83s1.74,3.83,3.88,3.83,3.88-1.72,3.88-3.83-1.74-3.83-3.88-3.83h0Z"/>
        <path id="L" class="cls-1" d="M12.33,25.57h-2c-.21,0-.37-.16-.37-.37s.17-.37.37-.37h2c.21,0,.37.16.37.37s-.17.37-.37.37Z"/>
        <path id="CENTRE" class="cls-1" d="M21.22,25.57h-1.42c-.21,0-.37-.16-.37-.37s.17-.37.37-.37h1.42c.21,0,.37.16.37.37s-.17.37-.37.37Z"/>
        <path id="R" class="cls-1" d="M30.65,25.46h-2c-.21,0-.37-.16-.37-.37s.17-.37.37-.37h2c.21,0,.37.16.37.37s-.17.37-.37.37Z"/>
      </g>
      <g id="CHEVEUX_DEVANT">
        <path id="INT-3" data-name="INT" class="cls-5" d="M20.71,19.9h-.55s0,0,0,0c-.19,0-.39-.01-.57-.08-.69-.25-1.23-.84-1.44-1.54.28,2.4-3.6,2.4-3.32,0-1.65,1.19-4.22-.25-3.32-2.46,0,0-1.41,2.03-2.23-.43l-1.58.18c-1.58.06-2.23-4.55.5-4.51-2.7-1.58,2.23-3.74,3.32-1.64-.69-1.89,1.67-3.65,3.32-2.46-.28-2.4,3.6-2.4,3.32,0,.21-.71.75-1.3,1.44-1.54.18-.07,1.51-.07,1.69,0,.69.25,1.23.84,1.44,1.54-.28-2.4,3.6-2.4,3.32,0,1.65-1.19,4.01.56,3.32,2.46,1.09-2.1,6.02.06,3.32,1.64,2.73-.04,2.08,4.57.5,4.51l-1.58-.18c-.83,2.46-2.23.43-2.23.43.9,2.21-1.67,3.65-3.32,2.46.28,2.4-3.6,2.4-3.32,0-.21.71-.75,1.3-1.44,1.54-.18.07-.38.08-.57.08h0"/>
        <path id="EXT-3" data-name="EXT" class="cls-1" d="M16.49,20.81c-.49,0-.97-.13-1.38-.38-.42-.26-.73-.63-.89-1.08-.88.21-1.84.03-2.58-.54-.52-.4-.85-.92-.99-1.5-.15.03-.32.04-.49.01-.56-.08-1.02-.46-1.36-1.14l-1.02.12c-.68.04-1.26-.32-1.66-.97-.59-.95-.79-2.64-.11-3.8.2-.35.47-.63.79-.83-.18-.38-.17-.73-.12-.96.22-1.08,1.51-1.73,2.62-1.88.54-.07,1.03-.04,1.47.09.18-.57.55-1.1,1.09-1.5.72-.53,1.57-.72,2.37-.55.17-.45.47-.82.9-1.09.81-.5,1.94-.5,2.75,0,.21.13.39.28.53.46.27-.23.59-.42.93-.54.35-.13,1.86-.13,2.21,0,.34.12.65.31.93.54.15-.18.33-.33.53-.46.81-.5,1.94-.5,2.75,0,.43.27.73.64.9,1.09.79-.17,1.64.01,2.36.55.54.4.91.92,1.09,1.5.43-.13.93-.17,1.47-.09,1.11.15,2.4.8,2.62,1.88.05.23.06.58-.12.96.32.2.59.48.79.83.67,1.16.47,2.85-.11,3.8-.4.65-.98,1.01-1.6.98l-1.08-.12c-.34.68-.79,1.07-1.36,1.14-.17.02-.34.02-.49-.01-.13.58-.47,1.11-.99,1.5-.74.57-1.7.75-2.58.54-.17.44-.47.81-.89,1.08-.81.5-1.94.5-2.75,0-.21-.13-.39-.28-.53-.46-.27.23-.59.42-.93.54-.31.11-.62.13-.83.13h-.55c-.21,0-.52-.01-.83-.13-.34-.12-.65-.31-.93-.54-.15.18-.33.33-.53.46-.41.25-.89.38-1.38.38ZM14.83,17.54c.13,0,.26.03.38.1.26.15.4.43.37.72-.04.39.07.66.34.82.33.21.83.21,1.17,0,.27-.17.38-.44.34-.82-.04-.38.21-.73.59-.81.38-.08.75.15.86.52.14.49.52.89.98,1.06.1.04.26.04.31.04h.55c.05,0,.22,0,.32-.04.46-.17.83-.57.97-1.06.11-.37.48-.59.86-.52.38.07.64.43.59.81-.04.39.07.66.34.82.33.21.83.21,1.17,0,.27-.17.38-.44.34-.82-.03-.29.11-.57.37-.72.26-.15.58-.13.82.04.64.46,1.4.31,1.84-.03.28-.21.7-.7.35-1.56-.14-.35,0-.75.34-.92.34-.18.75-.08.97.23.15.22.43.45.54.46,0,0,.17-.13.37-.71.11-.33.45-.54.79-.5l1.58.18s.09-.07.21-.27c.35-.57.47-1.65.09-2.3-.19-.32-.48-.48-.88-.46-.34-.01-.64-.22-.73-.54-.09-.32.05-.66.34-.83.35-.21.44-.37.43-.4-.04-.18-.55-.6-1.36-.71-.24-.03-1.06-.1-1.35.45-.18.35-.6.5-.96.34-.36-.15-.54-.56-.4-.93.24-.67-.11-1.24-.53-1.55-.42-.31-1.07-.48-1.65-.06-.24.17-.56.19-.82.04-.26-.15-.4-.43-.37-.72.04-.39-.07-.66-.34-.82-.33-.21-.83-.21-1.17,0-.27.17-.38.44-.34.83.04.38-.21.73-.59.81-.38.08-.76-.15-.86-.52-.14-.47-.49-.86-.93-1.04-.24-.03-1.03-.03-1.27,0-.44.18-.79.57-.93,1.04-.11.37-.49.59-.86.52-.38-.08-.64-.43-.59-.81.04-.39-.06-.66-.34-.83-.33-.21-.83-.21-1.17,0-.27.17-.38.44-.34.83.03.29-.11.57-.37.72-.25.15-.57.13-.82-.04-.58-.42-1.23-.24-1.65.06-.42.31-.77.88-.53,1.55.13.37-.04.77-.4.93-.36.16-.78,0-.96-.34-.28-.55-1.11-.48-1.35-.45-.81.11-1.32.53-1.36.72,0,.04.08.2.43.4.29.17.43.51.34.83-.09.32-.37.53-.73.54-.42-.02-.7.14-.88.46-.38.65-.25,1.74.09,2.3.12.2.23.27.27.27h0l1.53-.18c.34-.04.68.17.79.5.21.61.39.72.4.72.09-.01.36-.25.52-.47.22-.31.63-.41.97-.23.33.18.48.57.34.92-.35.86.07,1.35.35,1.56.44.34,1.2.49,1.84.03.13-.09.28-.14.44-.14Z"/>
      </g>
    </g>
  </g>
</svg>