<?xml version="1.0" encoding="UTF-8"?>
<svg id="VISAGE1_BLONDE" xmlns="http://www.w3.org/2000/svg" viewBox="0 0 60 60">
  <defs>
    <style>
      .cls-1 {
        fill: #010658;
      }

      .cls-2 {
        fill: #fff;
      }

      .cls-3 {
        stroke: #010658;
        stroke-miterlimit: 10;
        stroke-width: 2.11px;
      }

      .cls-3, .cls-4 {
        fill: #021059;
      }

      .cls-5 {
        fill: #535af1;
      }

      .cls-6 {
        fill: #f2b705;
      }

      .cls-7 {
        fill: #f2efea;
      }
    </style>
  </defs>
  <g id="ECRAN">
    <path id="INT" class="cls-7" d="M24.17,51.49c-8.75,0-15.87-7.06-15.87-15.74,0-.44.02-.86.05-1.28-.07-.08-.13-.16-.19-.24-1.05-1.35-1.41-3.1-.96-4.78.84-3.15,4.55-13.42,17.06-13.42.18,0,.36,0,.54,0,.42-1.35,1.15-2.59,2.19-3.68,2.3-2.42,6-3.87,9.88-3.87,5.21,0,9.79,2.5,12.23,6.68,2.64,4.52.77,9.93-.73,14.28-.07.21-.23.65-.4,1.16,1.31.13,2.55.72,3.46,1.66,1.05,1.09,1.6,2.51,1.55,4.01-.23,5.93-4.89,9.04-9.38,9.04-2.03,0-4.03-.63-5.67-1.75-2.82,4.85-8.09,7.92-13.77,7.92Z"/>
    <path id="EXT" class="cls-5" d="M36.87,9.51c4.85,0,9.09,2.31,11.36,6.18,2.4,4.12.62,9.29-.81,13.45-.19.54-.56,1.59-.83,2.54.26-.05.54-.07.82-.07,1.24,0,2.45.51,3.3,1.39.86.89,1.31,2.05,1.26,3.27-.2,5.3-4.35,8.07-8.36,8.07-2.24,0-4.4-.83-6-2.29-2.38,4.99-7.51,8.46-13.44,8.46-8.19,0-14.85-6.61-14.85-14.73,0-.54.03-1.09.09-1.63-.16-.15-.3-.31-.43-.48-.88-1.12-1.16-2.55-.79-3.92.79-2.98,4.32-12.67,16.08-12.67.45,0,.89.02,1.31.05.31-1.49,1.04-2.86,2.15-4.04,2.12-2.23,5.53-3.55,9.14-3.55M36.87,7.5c-4.16,0-8.12,1.56-10.61,4.18-.95,1-1.68,2.14-2.17,3.36-10.4.08-16.05,7.35-17.86,14.17-.52,1.95-.12,3.98,1.09,5.59-.02.31-.03.63-.03.96,0,9.23,7.57,16.75,16.88,16.75,5.69,0,10.99-2.9,14.1-7.54,1.62.89,3.47,1.37,5.34,1.37,4.97,0,10.14-3.44,10.39-10,.07-1.77-.58-3.45-1.82-4.74-.8-.81-1.79-1.41-2.87-1.73,0-.02.02-.04.02-.07,1.49-4.31,3.52-10.2.65-15.12-2.63-4.5-7.53-7.18-13.11-7.18h0Z"/>
  </g>
  <g id="VISAGE">
    <g id="VISAGE-2" data-name="VISAGE">
      <path id="INT-2" data-name="INT" class="cls-2" d="M24.5,46.79c-6.41,0-11.62-5.13-11.62-11.43,0-1.4.26-2.77.77-4.08l.21-.55h5.76l1.9-1.86,1.89,1.86h2.34l1.9-1.86,1.89,1.86h5.59l.21.55c.5,1.29.76,2.67.76,4.08,0,6.3-5.21,11.43-11.62,11.43Z"/>
      <path id="EXT-2" data-name="EXT" class="cls-4" d="M27.66,30.08l1.53,1.51h5.35c.46,1.17.7,2.45.7,3.77,0,5.84-4.81,10.57-10.75,10.57s-10.75-4.73-10.75-10.57c0-1.33.25-2.6.71-3.77h5.52l1.54-1.51,1.53,1.51h3.07l1.54-1.51M27.67,27.65l-1.24,1.21-1.03,1.01h-1.62l-1.02-1-1.24-1.21-1.24,1.21-1.03,1.01h-6l-.43,1.11c-.55,1.41-.83,2.88-.83,4.39,0,6.78,5.61,12.29,12.5,12.29s12.5-5.51,12.5-12.29c0-1.52-.27-2.99-.82-4.39l-.43-1.11h-5.83l-1.02-1-1.24-1.21h0Z"/>
    </g>
    <g id="YEUX">
      <path class="cls-1" d="M21.26,34.75c-.44,0-.8.33-.8.74s.36.74.8.74.8-.33.8-.74-.36-.74-.8-.74h0Z"/>
      <path class="cls-1" d="M27.66,34.75c-.44,0-.8.33-.8.74s.36.74.8.74.8-.33.8-.74-.36-.74-.8-.74h0Z"/>
    </g>
    <path id="NEZ" class="cls-1" d="M24.51,36.24c-.42,0-.75.33-.75.74s.34.74.75.74.75-.33.75-.74-.34-.74-.75-.74h0Z"/>
    <g id="BOUCHE">
      <path class="cls-1" d="M24.51,41.17c-1.3,0-2.32-.8-2.32-1.82,0-.45.37-.82.82-.82s.82.37.82.82c.02,0,.26.18.68.18s.66-.17.69-.23c0-.45.36-.79.81-.79s.81.39.81.84c0,1.02-1.02,1.82-2.32,1.82Z"/>
    </g>
    <path id="ELASTIC" class="cls-3" d="M32.38,20.61v1.3c0,.47-.42.85-.94.85h-3.12c-.52,0-.94-.38-.94-.85v-1.3c0-.47.43-.86.95-.86h3.11c.52,0,.94.38.94.85Z"/>
    <g id="FRINGE">
      <path class="cls-6" d="M28.73,32.61l-1.14-1.15-1.15,1.15h-3.7l-1.14-1.15-1.15,1.15h-6.78c-.54,0-1.03-.24-1.36-.67-.33-.43-.43-.97-.3-1.49.63-2.37,3.39-10.12,12.59-10.12,1.14,0,2.22.12,3.2.35l.66.16v1h2.41l.2.11c3.97,2.27,5.54,6.29,6.12,8.49.14.52.03,1.07-.3,1.5-.33.43-.82.67-1.36.67h-6.79Z"/>
      <path class="cls-4" d="M24.59,21.19c1.09,0,2.1.11,3,.33v1.18h3.04c3.76,2.15,5.21,6.07,5.72,7.97.15.55-.26,1.09-.83,1.09h-6.43l-.89-.9c-.17-.17-.39-.25-.6-.25s-.44.08-.6.25l-.9.9h-2.99l-.89-.9c-.17-.17-.39-.25-.6-.25-.22,0-.44.08-.6.25l-.9.9h-6.43c-.56,0-.97-.53-.83-1.08.71-2.69,3.34-9.48,11.76-9.48M24.59,19.47c-9.8,0-12.74,8.23-13.41,10.76-.21.78-.04,1.6.44,2.24.49.64,1.23,1.01,2.04,1.01h7.14l.5-.5.3-.3.29.29.5.5h4.41l.5-.5.3-.3.29.29.5.5h7.14c.8,0,1.55-.37,2.04-1.01.49-.64.65-1.46.44-2.24-.62-2.33-2.29-6.59-6.52-9.02l-.39-.23h-1.78v-.82l-1.32-.31c-1.04-.25-2.19-.37-3.4-.37h0Z"/>
    </g>
    <g id="QUEUE">
      <path class="cls-6" d="M42.92,40.77c-1.8,0-3.52-.78-4.6-2.09-.85-1.03-1.72-2.87-1-5.76,1.38-4.4,1.23-7.95-.39-10.06-1.19-1.54-3.17-2.32-5.88-2.32-.62,0-1.29.04-1.99.12l-.93.11-.06-.9c-.09-1.46.43-2.82,1.51-3.92,1.54-1.57,4.1-2.51,6.85-2.51,3.71,0,6.93,1.68,8.63,4.48,1.71,2.83.27,6.86-.99,10.42-.79,2.23-1.69,4.76-1.09,5.56.18.24.59.37,1.23.37.52,0,1.17-.09,1.94-.26.13-.03.27-.05.4-.05.48,0,.95.19,1.28.52.32.32.49.74.47,1.19-.13,3.48-2.89,5.07-5.39,5.07Z"/>
      <path class="cls-4" d="M36.45,14.3c3.01,0,6.16,1.22,7.87,4.06,3.21,5.33-6.65,16.77-.1,16.77.58,0,1.28-.09,2.14-.28.07-.02.14-.02.2-.02.48,0,.9.36.88.84-.11,2.86-2.28,4.26-4.52,4.26-2.87,0-5.86-2.31-4.75-6.81,2.37-7.54.53-13.41-7.12-13.41-.66,0-1.35.04-2.09.13-.21-3.39,3.51-5.54,7.49-5.54M36.45,12.61c-2.99,0-5.79,1.04-7.49,2.77-1.25,1.28-1.86,2.85-1.75,4.55l.11,1.79,1.85-.22c.66-.08,1.29-.12,1.88-.12,2.42,0,4.16.66,5.17,1.98,1.46,1.89,1.56,5.18.27,9.27v.05s-.03.05-.03.05c-.8,3.22.19,5.3,1.17,6.48,1.24,1.51,3.22,2.41,5.29,2.41,2.91,0,6.12-1.84,6.27-5.88.03-.67-.23-1.31-.72-1.8-.5-.5-1.19-.78-1.91-.78-.2,0-.4.02-.6.07-.7.16-1.29.24-1.74.24-.29,0-.45-.03-.53-.05-.22-.73.68-3.24,1.22-4.76,1.33-3.73,2.83-7.95.92-11.11-1.85-3.07-5.36-4.9-9.39-4.9h0Z"/>
    </g>
  </g>
  <g id="YEUX-2" data-name="YEUX">
    <path class="cls-1" d="M21.26,34.75c-.44,0-.8.33-.8.74s.36.74.8.74.8-.33.8-.74-.36-.74-.8-.74h0Z"/>
    <path class="cls-1" d="M27.66,34.75c-.44,0-.8.33-.8.74s.36.74.8.74.8-.33.8-.74-.36-.74-.8-.74h0Z"/>
  </g>
  <g id="BOUCHE-2" data-name="BOUCHE">
    <path class="cls-1" d="M24.51,41.17c-1.3,0-2.32-.8-2.32-1.82,0-.45.37-.82.82-.82s.82.37.82.82c.02,0,.26.18.68.18s.66-.17.69-.23c0-.45.36-.79.81-.79s.81.39.81.84c0,1.02-1.02,1.82-2.32,1.82Z"/>
  </g>
</svg>