<?xml version="1.0" encoding="UTF-8"?>
<svg id="Calque_2" data-name="Calque 2" xmlns="http://www.w3.org/2000/svg" viewBox="0 0 31 45">
  <defs>
    <style>
      .cls-1 {
        fill: #010658;
      }

      .cls-2 {
        fill: #fff;
      }

      .cls-3 {
        fill: none;
      }

      .cls-4 {
        fill: #021059;
      }

      .cls-5 {
        fill: #535af1;
      }

      .cls-6 {
        fill: #2e38f2;
      }

      .cls-7 {
        fill: #f2efea;
      }
    </style>
  </defs>
  <g id="VISAGE2-MEC_LONG" data-name="VISAGE2-MEC LONG">
    <g id="ECRAN">
      <path id="INT" class="cls-7" d="M1.13,12.23c-.23.58-.27,1.21-.1,1.79l1.13,4.13c.03.12.08.22.12.32v15.84c0,5.39,4.78,9.78,10.65,9.78s10.64-4.39,10.64-9.78v-14.87c3.47-1.59,5.65-4.27,6.24-5.75.48-1.2.31-2.42-.42-3.28-.65-.82-1.71-1.31-2.83-1.31-1.05,0-1.83.41-2.46.73-.14.07-.39.2-.62.3-.09-.18-.17-.35-.22-.46-.52-1.12-1.3-2.8-2.96-4.58-1.16-1.25-3.89-4.18-7.87-4.18-.17,0-.34,0-.54.02-2.22.15-4.27,1.2-5.95,3.05-.3.33-.58.71-.85,1.12l-.59.96-.18.32-.25.44h0s-.35.62-.35.62l-2.58,4.79Z"/>
      <path id="EXT" class="cls-5" d="M12.92,45c-6.38,0-11.58-4.8-11.58-10.69v-15.66c-.03-.08-.06-.16-.08-.24L.13,14.26c-.22-.75-.17-1.59.13-2.36l.05-.1,3.36-6.18.61-.99c.35-.53.65-.92.95-1.25C7.08,1.35,9.36.19,11.82.02c.23-.01.42-.02.61-.02,4.38,0,7.3,3.13,8.55,4.47,1.57,1.68,2.39,3.26,2.93,4.42.65-.33,1.51-.71,2.64-.71,1.41,0,2.74.62,3.56,1.66.94,1.1,1.15,2.67.56,4.18-.6,1.49-2.71,4.23-6.18,5.99v14.3c0,5.9-5.19,10.69-11.57,10.69ZM1.98,12.61c-.14.39-.16.79-.05,1.16l1.13,4.14c.02.07.05.14.08.21l.07.16v.18s0,15.84,0,15.84c0,4.88,4.36,8.86,9.72,8.86s9.71-3.97,9.71-8.86v-15.46l.54-.25c3.27-1.49,5.27-4.01,5.77-5.25.35-.88.25-1.74-.27-2.35-.49-.62-1.28-.98-2.12-.98s-1.44.32-2.03.63c-.16.08-.42.22-.66.32l-.83.37-.61-1.27c-.5-1.08-1.24-2.68-2.81-4.35-1.08-1.16-3.62-3.88-7.19-3.88-.15,0-.31,0-.49.02-1.96.13-3.8,1.08-5.31,2.75-.24.27-.49.59-.77,1.01l-1.33,2.28-2.55,4.72Z"/>
    </g>
    <g id="VISAGE">
      <g id="FORME_TETE" data-name="FORME TETE">
        <path id="INT-2" data-name="INT" class="cls-2" d="M13,39.66c-3.67,0-6.66-2.97-6.66-6.62V15.63c0-3.65,2.99-6.62,6.66-6.62s6.66,2.97,6.66,6.62v17.42c0,3.65-2.99,6.62-6.66,6.62Z"/>
        <path id="EXT-2" data-name="EXT" class="cls-4" d="M9.3,10.13c-.07.05-.13.09-.2.14-.12.09-.24.18-.36.28h0c-.07.06-.13.11-.19.17l.21.72c.07-.07.15-.14.22-.21h0c.11-.09.21-.18.33-.27.07-.06.15-.11.23-.17l-.22-.65ZM20.13,13.99c-.31-1.34-1-2.54-1.94-3.49-1.33-1.33-3.16-2.15-5.18-2.15-1.44,0-2.79.42-3.92,1.14-.06.03-.12.07-.17.11-.13.09-.27.18-.39.28-.06.05-.11.09-.17.14-.13.11-.25.21-.37.33-.07.05-.13.11-.18.17-.28.28-.54.58-.76.9-.85,1.18-1.35,2.63-1.35,4.2v17.41c0,4.01,3.29,7.28,7.32,7.28s7.31-3.27,7.31-7.28V15.63c0-.57-.07-1.12-.19-1.64ZM18.99,33.04c0,3.28-2.69,5.96-5.99,5.96s-5.99-2.68-5.99-5.96V15.63c0-1.35.45-2.59,1.22-3.59.07-.09.14-.18.22-.28.09-.11.19-.22.3-.32.07-.07.15-.14.22-.21h0c.11-.09.21-.18.33-.27.07-.06.15-.11.23-.17.98-.7,2.19-1.12,3.48-1.12,3.29,0,5.99,2.68,5.99,5.96v17.41Z"/>
      </g>
      <path id="BOUCHE" class="cls-4" d="M13.74,33.05h-1.84c-.51,0-.93-.41-.93-.92s.41-.92.93-.92h1.84c.51,0,.93.41.93.92s-.41.92-.93.92Z"/>
      <path id="NEZ" class="cls-4" d="M13.85,28.9c-.56,0-1.22-.16-1.89-.48-.23-.11-.33-.38-.22-.61.11-.23.39-.32.62-.21,1.17.56,2.02.41,2.17.17.06-.1.07-.3-.01-.45-.08-.15-.25-.19-.62-.27-.38-.08-.84-.18-1.17-.58-.41-.5-.44-1.24-.08-2.27.08-.24.35-.37.59-.29.24.08.37.34.29.58-.23.68-.26,1.17-.08,1.39.12.15.37.2.65.26.42.09.95.2,1.24.72.24.42.23.99,0,1.38-.27.43-.81.65-1.47.65Z"/>
      <g id="YEUX">
        <path id="OEIL_L" class="cls-1" d="M10.23,23.55c-.45,0-.81.36-.81.8s.36.8.81.8.81-.36.81-.8-.36-.8-.81-.8h0Z"/>
        <path id="OEIL_R" class="cls-1" d="M15.77,23.55c-.45,0-.81.36-.81.8s.36.8.81.8.81-.36.81-.8-.36-.8-.81-.8h0Z"/>
      </g>
      <g id="CHEVEUX">
        <polyline id="AIDE" class="cls-3" points="7.72 7.77 7.39 8.4 7.38 8.42 7.38 8.42 7.26 8.66 5.33 12.4 4.52 13.96"/>
        <g id="DERRIER">
          <path id="INT-3" data-name="INT" class="cls-6" d="M6.82,18.58c-.07,0-.13,0-.2-.03-.22-.07-.39-.25-.45-.47l-.92-3.67c-.03-.13-.02-.28.03-.4l1.84-4.58c.1-.25.35-.42.62-.42h.02c.28,0,.52.19.61.45l1.94,5.75c.08.25,0,.53-.19.71l-2.86,2.5c-.12.11-.28.16-.44.16Z"/>
          <path id="EXT-3" data-name="EXT" class="cls-4" d="M8.88,10.96l-.07-.21-.07-.2c-.07.06-.13.11-.19.17l-.14-.48h0s-.05-.21-.05-.21c.06-.05.11-.09.17-.14l-.15-.43c-.05-.15-.16-.28-.29-.36h0s0,0,0,0c0,0-.01-.01-.02-.01-.04-.02-.08-.04-.13-.05-.05-.02-.11-.03-.17-.03h-.02c-.13,0-.25.04-.35.11l.24.83.11-.28.23.69.23.69.25.71c.09-.11.19-.22.3-.32.07-.07.15-.14.22-.21h0s-.09-.27-.09-.27ZM8.41,10.24h0s-.05-.21-.05-.21l-.02-.07-.02-.05v-.02l-.05-.17-.07-.26-.06-.2-.04-.14h0s0-.01,0-.01c0,0-.01-.01-.02-.01-.04-.02-.08-.04-.13-.05-.05-.02-.11-.03-.17-.03h-.02c-.13,0-.25.04-.35.11l.24.83.11-.28.23.69.23.69.25.71c.09-.11.19-.22.3-.32l-.21-.72-.14-.48ZM10.95,15l-1.43-4.22-.22-.65-.22-.64-.08-.24c-.07-.2-.18-.38-.33-.51-.16-.16-.35-.27-.57-.33-.1-.03-.21-.05-.33-.05h-.04c-.11,0-.23.01-.34.05h-.01v.02s-.01,0-.01,0l-.12.23-1.93,3.74-.66,1.37c-.11.26-.13.54-.05.81l.92,3.66c.03.13.08.25.15.36.15.25.38.45.66.56.03,0,.05.02.08.03.13.04.27.06.4.06.06,0,.13,0,.19-.01.25-.03.48-.15.68-.32l2.54-2.21.33-.28c.06-.05.12-.11.17-.18.15-.18.24-.4.27-.63.03-.2.01-.4-.05-.6ZM9.3,15.76l-2.28,2-.19.17-.48-1.9-.44-1.77,1.13-2.82.6-1.49.11-.28.23.69.23.69.25.71,1.23,3.66-.39.34Z"/>
        </g>
        <g id="DEVANT">
          <path id="INT-4" data-name="INT" class="cls-6" d="M17.19,18.76c-3.75,0-6.61-2.6-7.15-3.12l-.13-.12-1.97-6.86.14-.24c.51-.87,1.93-2.91,4.21-3.08.1,0,.2-.01.29-.01,2.28,0,3.96,1.94,4.87,2.99,1.17,1.35,1.69,2.57,2.11,3.56.44,1.04.68,1.55,1.28,1.75.16.05.32.08.5.08.69,0,1.4-.4,1.92-.69.41-.23.67-.38.98-.38.25,0,.47.11.62.3.19.25.21.57.06.97-.45,1.21-2.73,3.91-5.98,4.66-.58.13-1.17.2-1.76.2Z"/>
          <path id="EXT-4" data-name="EXT" class="cls-4" d="M9.1,10.27c-.07-.22-.13-.44-.19-.67-.08-.28-.17-.57-.25-.85,0,0,0-.01.01-.02-.16-.16-.35-.27-.57-.33-.1-.03-.21-.05-.33-.05h-.04c-.11,0-.23.01-.34.05l-.03.03-.12.23.13.46c.1-.07.23-.11.35-.11h.02c.06,0,.11,0,.17.03.05.01.09.03.13.05,0,0,.01,0,.02.01h0s.04.15.04.15l.06.2.07.26.05.17v.02l.02.05.02.07.05.2h0s.14.5.14.5c.07-.06.13-.11.19-.17l.07.2.07.21.09.26c.11-.09.21-.18.33-.26-.06-.23-.13-.46-.19-.69ZM10.32,15.22l-1.35-3.99c-.07.07-.15.14-.22.21l1.12,3.92.05.16.13.13s.11.1.18.17c.03-.04.05-.08.07-.13.02-.04.03-.08.05-.13h0s0-.05,0-.07c.01-.09,0-.18-.03-.28ZM10.32,15.22l-1.35-3.99h0c.11-.09.21-.18.33-.27-.06-.23-.13-.46-.19-.69-.07-.22-.13-.44-.19-.67-.08-.28-.17-.57-.25-.85,0,0,0-.01.01-.02-.16-.16-.35-.27-.57-.33-.1-.03-.21-.05-.33-.05h-.04c-.11,0-.23.01-.34.05l-.03.03-.12.23.13.46c.1-.07.23-.11.35-.11h.02c.06,0,.11,0,.17.03.05.01.09.03.13.05,0,0,.01,0,.02.01h0c.13.09.24.21.29.36l.15.43c-.06.05-.11.09-.17.14l.05.2h0s.14.5.14.5l.21.72,1.12,3.92.05.16.13.13s.11.1.18.17c.03-.04.05-.08.07-.13.02-.04.03-.08.05-.13h0s0-.05,0-.07c.01-.09,0-.18-.03-.28ZM25.4,12.55c-.27-.36-.69-.57-1.15-.57s-.86.21-1.3.46c-.45.25-1.08.6-1.59.6-.11,0-.2-.01-.29-.05-.3-.09-.45-.38-.88-1.37-.42-.98-.98-2.3-2.22-3.73-.9-1.05-2.79-3.22-5.38-3.22-.11,0-.23,0-.34.01-1.77.13-3.07,1.22-3.89,2.2-.37.44-.68.93-.94,1.45l-.03.06v.02s-.01,0-.01,0l-.12.23.13.46.24.83.17.58.21.73.23.78,1,3.49.06.22.03.11.25.24s.09.09.15.15h0c.13.12.29.26.5.44,1.21.99,3.78,2.72,6.96,2.72.6,0,1.21-.07,1.8-.19.04,0,.07-.01.11-.02.19-.04.37-.09.55-.15.23-.07.45-.15.66-.23,2.87-1.1,4.79-3.5,5.24-4.7.28-.77.07-1.29-.16-1.58ZM20.32,17.4c-.21.1-.43.19-.66.27-.21.08-.44.15-.66.2-.06.02-.13.03-.19.05-.55.13-1.09.18-1.61.18-2.85,0-5.2-1.66-6.19-2.49-.26-.21-.42-.37-.49-.44-.4-1.41-.81-2.81-1.21-4.21-.06-.23-.13-.46-.19-.69-.07-.22-.13-.44-.19-.67-.08-.28-.17-.57-.25-.85,0,0,0-.01.01-.02.28-.47,1.59-2.57,3.68-2.73.08,0,.16,0,.24,0,1.98,0,3.52,1.79,4.37,2.76.53.61.92,1.2,1.23,1.75.89,1.59,1.08,2.87,1.94,3.49.15.11.33.2.52.26.23.08.47.11.7.11,1.32,0,2.53-1.06,2.89-1.06.04,0,.07,0,.09.03.25.34-1.34,2.82-4.02,4.07Z"/>
        </g>
      </g>
    </g>
  </g>
</svg>